# xmcd
# Track frame offsets:
# 150
# 16545
# 30577
# 45917
# 60040
# 71915
# 86722
# 100542
# 114895
# 126460
#
# Disc length: 1835 seconds
# Revision: 0
# Processed by: cddbd v1.4PL0 Copyright (c) Steve Scherf et al.
# Submitted via: VisiTrax 2.9.5.180 - For more info visit www.synapsa.com
#
DISCID=6c07290a
DTITLE=David Frizzell - Sings Lefty's greatest hits
DYEAR=2000
DGENRE=
TTITLE0=Lefty's star
TTITLE1=If you've got the money I've got the time
TTITLE2=Saginaw Michigan
TTITLE3=Always late (with your kisses)
TTITLE4=How long will it take (to stop loving you)
TTITLE5=I love you a thousand ways
TTITLE6=Mom and dad's waltz
TTITLE7=Long black veil
TTITLE8=Cigarettes and coffee blues
TTITLE9=Watermelon time in Georgia
EXTD=
EXTT0=
EXTT1=
EXTT2=
EXTT3=
EXTT4=
EXTT5=
EXTT6=
EXTT7=
EXTT8=
EXTT9=
PLAYORDER=
